<svg width="123" height="28" viewBox="0 0 123 28" fill="none" xmlns="http://www.w3.org/2000/svg">
<g clip-path="url(#clip0_4284_33553)">
<path d="M4.6991 0H0V27.5637H17.0471V23.538H4.6991V0Z" fill="white"/>
<path d="M24.8037 12.5483H20.2505V27.5626H24.8037V12.5483Z" fill="white"/>
<path d="M38.2076 27.0186L32.4161 8.01416H27.8628L33.9461 27.563H42.4691L48.5523 8.01416H43.9623L38.2076 27.0186Z" fill="white"/>
<path d="M59.8485 7.58105C53.9468 7.58105 50.1953 11.7886 50.1953 17.7724C50.1953 23.7206 53.8376 28.0002 59.8485 28.0002C64.4374 28.0002 67.7523 25.9691 68.9906 21.7981H64.3606C63.6691 23.684 62.393 24.8104 59.8798 24.8104C57.1116 24.8104 55.1818 22.8879 54.8177 19.1171H69.3147C69.384 18.6364 69.4201 18.1515 69.4228 17.6659C69.4239 11.5702 65.6356 7.58105 59.8485 7.58105ZM54.8533 15.9585C55.3277 12.4416 57.185 10.773 59.8485 10.773C62.6524 10.773 64.5465 12.8397 64.7658 15.9585H54.8533Z" fill="white"/>
<path d="M96.048 0H90.1474L78.7103 12.6216V0H74.0112V27.5637H78.7103V13.6372L91.3132 27.5637H97.323L84.1376 13.0562L96.048 0Z" fill="white"/>
<path d="M103.914 8.01416H99.3608V23.0284H103.914V8.01416Z" fill="white"/>
<path d="M20.251 8.01416H15.6978V12.5477H20.251V8.01416Z" fill="white"/>
<path d="M108.468 23.0298H103.915V27.5633H108.468V23.0298Z" fill="white"/>
<path d="M122.073 23.0298H117.52V27.5633H122.073V23.0298Z" fill="white"/>
<path d="M122.073 12.5484V8.0149H117.52V0H112.966V8.0149H108.413V12.5484H112.966V23.0302H117.52V12.5484H122.073Z" fill="white"/>
</g>
<defs>
<clipPath id="clip0_4284_33553">
<rect width="123" height="28" fill="white"/>
</clipPath>
</defs>
</svg>
